# xmcd
#
# Track frame offsets: 
#        182
#        20037
#        43260
#        61395
#        78257
#        87337
#        103270
#        139235
#        162220
#        180467
#
# Disc length: 2734 seconds
#
# Revision: 9
# Processed by: cddbd v1.4PL0 Copyright (c) Steve Scherf et al.
# Submitted via: ExactAudioCopy v0.90b4
#
DISCID=840aac0a
DTITLE=The Amazing Bud Powell - Bud Powell - 
DYEAR=1958
DGENRE=Jazz
TTITLE0=Cleopatra's Dream
TTITLE1=Duid Deed
TTITLE2=Down With It
TTITLE3=Danceland
TTITLE4=Borderick
TTITLE5=Crossin' The Channel
TTITLE6=Comin' Up
TTITLE7=Gettin' There
TTITLE8=The Scene Changes
TTITLE9=Comin' Up (Alternate Take)
EXTD=DNOTES
EXTT0=
EXTT1=
EXTT2=
EXTT3=
EXTT4=
EXTT5=
EXTT6=
EXTT7=
EXTT8=
EXTT9=
PLAYORDER=
